<svg width="16" height="16" viewBox="0 0 16 16" fill="none" xmlns="http://www.w3.org/2000/svg">
<path d="M5.33338 14.6667H10.6667C13.3467 14.6667 13.8267 13.5933 13.9667 12.2867L14.4667 6.95333C14.6467 5.32667 14.18 4 11.3334 4H4.66671C1.82005 4 1.35338 5.32667 1.53338 6.95333L2.03338 12.2867C2.17338 13.5933 2.65338 14.6667 5.33338 14.6667Z" stroke="#363535" stroke-width="1.5" stroke-miterlimit="10" stroke-linecap="round" stroke-linejoin="round"/>
<path d="M5.33337 4.00001V3.46668C5.33337 2.28668 5.33337 1.33334 7.46671 1.33334H8.53337C10.6667 1.33334 10.6667 2.28668 10.6667 3.46668V4.00001" stroke="#363535" stroke-width="1.5" stroke-miterlimit="10" stroke-linecap="round" stroke-linejoin="round"/>
<path d="M9.33329 8.66667V9.33333C9.33329 9.34 9.33329 9.34 9.33329 9.34667C9.33329 10.0733 9.32663 10.6667 7.99996 10.6667C6.67996 10.6667 6.66663 10.08 6.66663 9.35333V8.66667C6.66663 8 6.66663 8 7.33329 8H8.66663C9.33329 8 9.33329 8 9.33329 8.66667Z" stroke="#363535" stroke-width="1.5" stroke-miterlimit="10" stroke-linecap="round" stroke-linejoin="round"/>
<path d="M14.4334 7.33334C12.8934 8.45334 11.1334 9.12001 9.33337 9.34668" stroke="#363535" stroke-width="1.5" stroke-miterlimit="10" stroke-linecap="round" stroke-linejoin="round"/>
<path d="M1.7467 7.51334C3.2467 8.54 4.94004 9.16 6.6667 9.35333" stroke="#363535" stroke-width="1.5" stroke-miterlimit="10" stroke-linecap="round" stroke-linejoin="round"/>
</svg>
