<svg width="16" height="16" viewBox="0 0 16 16" fill="none" xmlns="http://www.w3.org/2000/svg">
<path d="M11.1333 12.6533H4.86668C4.58668 12.6533 4.27334 12.4333 4.18001 12.1667L1.42001 4.44667C1.02668 3.34 1.48668 3 2.43334 3.68L5.03334 5.54C5.46668 5.84 5.96001 5.68667 6.14668 5.2L7.32001 2.07333C7.69334 1.07333 8.31334 1.07333 8.68668 2.07333L9.86001 5.2C10.0467 5.68667 10.54 5.84 10.9667 5.54L13.4067 3.8C14.4467 3.05333 14.9467 3.43333 14.52 4.64L11.8267 12.18C11.7267 12.4333 11.4133 12.6533 11.1333 12.6533Z" stroke="#292D32" stroke-width="1.5" stroke-linecap="round" stroke-linejoin="round"/>
<path d="M4.33337 14.6667H11.6667" stroke="#292D32" stroke-width="1.5" stroke-linecap="round" stroke-linejoin="round"/>
<path d="M6.33337 9.33333H9.66671" stroke="#292D32" stroke-width="1.5" stroke-linecap="round" stroke-linejoin="round"/>
</svg>
