<svg width="16" height="16" viewBox="0 0 16 16" fill="none" xmlns="http://www.w3.org/2000/svg">
<path d="M8.09998 11V12.4" stroke="#363535" stroke-width="1.5" stroke-linecap="round" stroke-linejoin="round"/>
<path d="M4.76672 14.6667H11.4334V14C11.4334 13.2667 10.8334 12.6667 10.1001 12.6667H6.10006C5.36672 12.6667 4.76672 13.2667 4.76672 14V14.6667V14.6667Z" stroke="#363535" stroke-width="1.5" stroke-miterlimit="10"/>
<path d="M4.09998 14.6667H12.1" stroke="#363535" stroke-width="1.5" stroke-linecap="round" stroke-linejoin="round"/>
<path d="M8.00004 10.6667C5.42004 10.6667 3.33337 8.58 3.33337 6V3.99999C3.33337 2.52666 4.52671 1.33333 6.00004 1.33333H10C11.4734 1.33333 12.6667 2.52666 12.6667 3.99999V6C12.6667 8.58 10.58 10.6667 8.00004 10.6667Z" stroke="#363535" stroke-width="1.5" stroke-linecap="round" stroke-linejoin="round"/>
<path d="M3.64665 7.76666C3.14665 7.60666 2.70665 7.31333 2.35999 6.96666C1.75999 6.29999 1.35999 5.49999 1.35999 4.56666C1.35999 3.63333 2.09332 2.89999 3.02665 2.89999H3.45999C3.32665 3.20666 3.25999 3.54666 3.25999 3.89999V5.89999C3.25999 6.56666 3.39999 7.19333 3.64665 7.76666Z" stroke="#363535" stroke-width="1.5" stroke-linecap="round" stroke-linejoin="round"/>
<path d="M12.3534 7.76666C12.8534 7.60666 13.2934 7.31333 13.6401 6.96666C14.2401 6.29999 14.6401 5.49999 14.6401 4.56666C14.6401 3.63333 13.9067 2.89999 12.9734 2.89999H12.5401C12.6734 3.20666 12.7401 3.54666 12.7401 3.89999V5.89999C12.7401 6.56666 12.6001 7.19333 12.3534 7.76666Z" stroke="#363535" stroke-width="1.5" stroke-linecap="round" stroke-linejoin="round"/>
</svg>
