<svg width="20" height="20" viewBox="0 0 20 20" fill="none" xmlns="http://www.w3.org/2000/svg">
<circle cx="10" cy="10" r="9.5" fill="white" stroke="#035584"/>
<path d="M14.7232 6.04161L13.9584 5.27675C13.5894 4.90775 12.989 4.90775 12.6199 5.27675L6.50127 11.3955C6.44464 11.4521 6.40606 11.5242 6.39032 11.6027L6.00788 13.5148C5.9813 13.6478 6.02291 13.7853 6.11883 13.8812C6.19565 13.958 6.29914 14 6.40562 14C6.4321 14 6.45871 13.9974 6.48515 13.9921L8.39725 13.6097C8.47578 13.594 8.5479 13.5554 8.60452 13.4987L14.7232 7.38006C14.7232 7.38006 14.7233 7.38006 14.7233 7.38004C15.0922 7.01106 15.0922 6.41064 14.7232 6.04161ZM8.11776 12.8383L6.9227 13.0773L7.16175 11.8823L12.1419 6.90203L13.098 7.8581L8.11776 12.8383ZM14.1496 6.80644L13.6716 7.28447L12.7155 6.32841L13.1935 5.8504C13.2463 5.79767 13.332 5.79765 13.3848 5.85038L14.1496 6.61523C14.2024 6.66794 14.2024 6.75374 14.1496 6.80644Z" fill="#035584"/>
</svg>
