<svg width="16" height="16" viewBox="0 0 16 16" fill="none" xmlns="http://www.w3.org/2000/svg">
<path d="M12.0266 9.03341C11.7466 9.30674 11.5866 9.70008 11.6266 10.1201C11.6866 10.8401 12.3466 11.3667 13.0666 11.3667H14.3333V12.1601C14.3333 13.5401 13.2066 14.6667 11.8266 14.6667H4.17329C2.79329 14.6667 1.66663 13.5401 1.66663 12.1601V7.67342C1.66663 6.29342 2.79329 5.16675 4.17329 5.16675H11.8266C13.2066 5.16675 14.3333 6.29342 14.3333 7.67342V8.63342H12.9866C12.6133 8.63342 12.2733 8.78007 12.0266 9.03341Z" stroke="#292D32" stroke-width="1.5" stroke-linecap="round" stroke-linejoin="round"/>
<path d="M1.66663 8.27337V5.22674C1.66663 4.4334 2.15329 3.72671 2.89329 3.44671L8.18663 1.44671C9.01329 1.13337 9.89996 1.74673 9.89996 2.63339V5.16672" stroke="#292D32" stroke-width="1.5" stroke-linecap="round" stroke-linejoin="round"/>
<path d="M15.0392 9.31352V10.6869C15.0392 11.0536 14.7458 11.3535 14.3725 11.3669H13.0658C12.3458 11.3669 11.6858 10.8402 11.6258 10.1202C11.5858 9.7002 11.7458 9.30686 12.0258 9.03353C12.2725 8.7802 12.6125 8.63354 12.9858 8.63354H14.3725C14.7458 8.64688 15.0392 8.94685 15.0392 9.31352Z" stroke="#292D32" stroke-width="1.5" stroke-linecap="round" stroke-linejoin="round"/>
<path d="M4.66663 8H9.33329" stroke="#292D32" stroke-width="1.5" stroke-linecap="round" stroke-linejoin="round"/>
</svg>
