<svg width="288" height="348" viewBox="0 0 288 348" fill="none" xmlns="http://www.w3.org/2000/svg">
<path d="M88.6016 225.07C88.6016 225.07 94.6016 190.07 97.0816 183.16C98.8216 178.39 105.942 166.36 111.032 157.44C112.032 155.64 118.612 151.28 121.762 149.61C126.002 147.37 133.992 150.98 134.572 160.2C134.812 164.03 128.292 168.4 126.472 172.43C123.912 178.09 123.742 185.43 123.532 186.63C123.172 188.63 137.302 204.29 136.682 210.25C136.062 216.21 119.682 236.66 116.132 237.84C112.582 239.02 88.7116 230.84 88.6016 225.07Z" fill="#C4C4C4"/>
<path d="M117.712 164.75C120.902 167.1 126.002 168.5 128.712 169.14C131.282 166.09 134.712 163.01 134.542 160.2C133.962 150.98 125.982 147.37 121.742 149.61C118.792 151.238 115.974 153.094 113.312 155.16C113.312 155.16 113.172 161.41 117.712 164.75Z" fill="#EBEBEB"/>
<path d="M130.951 151.81C131.011 151.81 131.081 151.87 131.031 151.92C129.611 153.25 128.241 154.65 126.951 156.12C125.671 157.34 124.825 158.945 124.541 160.69C124.535 160.708 124.524 160.723 124.508 160.734C124.493 160.745 124.475 160.75 124.456 160.75C124.438 160.75 124.419 160.745 124.404 160.734C124.389 160.723 124.377 160.708 124.371 160.69C124.315 158.872 124.845 157.084 125.881 155.59C127.151 153.82 129.091 152.83 130.951 151.81Z" fill="#263238"/>
<path d="M126.602 148.59C126.609 148.585 126.616 148.581 126.624 148.578C126.632 148.576 126.641 148.575 126.649 148.576C126.658 148.577 126.666 148.58 126.673 148.584C126.68 148.588 126.687 148.593 126.692 148.6C126.697 148.607 126.701 148.614 126.704 148.622C126.706 148.63 126.707 148.639 126.706 148.647C126.705 148.655 126.702 148.664 126.698 148.671C126.694 148.678 126.689 148.685 126.682 148.69C125.361 150.025 124.126 151.441 122.982 152.93C121.982 154.18 120.252 156.02 120.982 157.74C121.102 158.04 120.982 158.07 120.752 157.81C119.672 156.19 120.752 154.12 121.752 152.74C123.033 151.007 124.691 149.587 126.602 148.59Z" fill="#263238"/>
<path opacity="0.1" d="M116.161 237.84C119.711 236.66 136.081 216.21 136.701 210.25C137.171 205.7 129.051 195.52 125.341 190.05L94.6113 193.05C91.8913 205.81 88.6113 225.05 88.6113 225.05C88.7113 230.84 112.601 239.01 116.161 237.84Z" fill="black"/>
<path d="M30.9417 237.76C30.9417 237.76 1.11167 235.09 0.0516658 237.22C-0.648334 238.61 5.93167 256.38 9.67167 262.27C13.4117 268.16 37.4417 290.81 43.7917 295.8L30.9417 237.76Z" fill="#C4C4C4"/>
<path opacity="0.1" d="M18.7817 262.04C21.3217 266.04 33.0817 277.22 41.2317 284.22L31.6017 240.77C24.1417 239.77 8.83169 237.97 8.19169 239.43C7.60169 240.69 15.1917 256.39 18.7817 262.04Z" fill="black"/>
<path d="M59.6021 205.22C59.6021 204.48 53.0121 182.9 62.7721 169.47C64.5721 166.98 97.4121 197.41 97.4121 197.41L59.6021 205.22Z" fill="#C4C4C4"/>
<path opacity="0.1" d="M65.7912 203.93L96.0812 197.68C92.9212 194.76 69.7912 173.54 68.4212 175.41C61.1012 185.49 65.1712 201.28 65.7912 203.93Z" fill="black"/>
<path d="M150.512 237.57C150.512 237.57 139.882 209.3 121.512 195.65C119.222 193.96 74.972 195.47 66.172 197.65C63.672 198.27 34.772 224.53 26.522 241.47C25.102 244.28 31.802 275.37 42.602 293.9C45.272 298.49 93.252 339.82 124.602 346.81C130.522 348.13 205.462 345.81 223.462 333.35C241.462 320.89 272.862 275.84 274.782 263.25C276.702 250.66 231.902 212.59 216.672 212.59C201.442 212.59 150.512 237.57 150.512 237.57Z" fill="#C4C4C4"/>
<path d="M82.5117 203.82C86.1217 198.39 93.3517 199.26 99.6917 203.47C104.812 206.88 107.912 213.58 104.452 218.79C100.992 224 92.6917 223.13 87.8717 219.93C83.0517 216.73 78.6017 209.71 82.5117 203.82Z" fill="#263238"/>
<path d="M83.492 205.22C86.882 200.12 93.682 200.94 99.642 204.89C104.462 208.1 107.372 214.4 104.112 219.3C100.852 224.2 93.112 223.38 88.532 220.37C83.952 217.36 79.812 210.76 83.492 205.22Z" fill="white"/>
<path d="M88.3821 207.28C91.0321 203.28 96.3821 203.93 101.022 207.03C104.792 209.54 107.072 214.47 104.522 218.3C101.972 222.13 95.8721 221.5 92.3221 219.14C88.7721 216.78 85.4921 211.59 88.3821 207.28Z" fill="#263238"/>
<path d="M84.6013 208.68C85.8113 206.87 88.2313 207.16 90.3413 208.57C92.0613 209.7 93.0913 211.94 91.9313 213.69C90.7713 215.44 88.0013 215.14 86.4013 214.07C84.8013 213 83.2513 210.65 84.6013 208.68Z" fill="white"/>
<path d="M58.2716 241.73C52.0416 247.49 53.3316 255.16 58.5016 260.73C59.6725 261.943 61.0726 262.911 62.6207 263.579C64.1689 264.246 65.8341 264.599 67.5198 264.618C69.2056 264.636 70.8782 264.32 72.4407 263.687C74.0031 263.054 75.4243 262.117 76.6216 260.93C82.6216 255.4 81.2717 246.55 77.3417 242.31C76.137 241.004 74.684 239.952 73.0677 239.214C71.4514 238.477 69.7042 238.069 67.9284 238.015C66.1527 237.961 64.384 238.262 62.7259 238.9C61.0677 239.538 59.5534 240.5 58.2716 241.73Z" fill="#263238"/>
<path d="M59.9514 242.34C54.1014 247.76 55.3114 254.97 60.1614 260.22C61.2644 261.351 62.5797 262.252 64.0319 262.873C65.4841 263.495 67.0446 263.823 68.624 263.84C70.2034 263.856 71.7706 263.561 73.2356 262.971C74.7007 262.381 76.0348 261.507 77.1614 260.4C82.7814 255.2 81.5314 246.89 77.8414 242.9C76.709 241.68 75.3455 240.696 73.8301 240.006C72.3147 239.317 70.6775 238.935 69.0134 238.883C67.3493 238.831 65.6914 239.11 64.1358 239.703C62.5803 240.296 61.158 241.193 59.9514 242.34Z" fill="white"/>
<path d="M64.6014 244.61C60.0114 248.85 60.9614 254.49 64.7614 258.61C65.6231 259.504 66.6539 260.217 67.794 260.709C68.9341 261.201 70.1606 261.461 71.4021 261.474C72.6436 261.487 73.8753 261.253 75.0254 260.785C76.1755 260.317 77.2212 259.626 78.1014 258.75C82.4914 254.68 81.5214 248.18 78.6314 245.05C77.7452 244.09 76.6767 243.316 75.4881 242.773C74.2995 242.23 73.0147 241.929 71.7087 241.888C70.4026 241.847 69.1015 242.067 67.8813 242.534C66.661 243.002 65.546 243.707 64.6014 244.61Z" fill="#263238"/>
<path d="M59.4117 247.43C57.3317 249.35 57.7618 251.91 59.4818 253.78C59.874 254.185 60.3426 254.508 60.8606 254.73C61.3786 254.953 61.9356 255.07 62.4992 255.076C63.0629 255.081 63.6221 254.975 64.1443 254.763C64.6666 254.551 65.1416 254.237 65.5418 253.84C66.3667 253.029 66.8509 251.934 66.8955 250.778C66.9401 249.622 66.5417 248.492 65.7817 247.62C65.3786 247.185 64.8928 246.835 64.3528 246.589C63.8128 246.344 63.2294 246.208 62.6366 246.19C62.0437 246.173 61.4532 246.273 60.8996 246.486C60.3459 246.699 59.8401 247.02 59.4117 247.43Z" fill="white"/>
<path d="M83.5313 232.8C84.1513 233.16 88.7813 231.32 89.0713 230.93C89.3613 230.54 89.8513 225.52 89.3513 225C88.8513 224.48 86.2813 227.51 85.6813 228.32C85.0813 229.13 82.9213 232.46 83.5313 232.8Z" fill="#263238"/>
<path d="M95.2616 225.47C95.6558 226.612 95.9896 227.773 96.2616 228.95C96.3979 229.51 96.4684 230.084 96.4716 230.66C96.4828 230.878 96.4269 231.095 96.3116 231.28C96.1628 231.419 95.9799 231.515 95.7816 231.56C95.2525 231.656 94.7106 231.656 94.1816 231.56C93.6072 231.475 93.0393 231.351 92.4816 231.19C91.3462 230.868 90.2337 230.471 89.1516 230L87.1516 229.14L88.3616 230.93C89.1692 232.125 89.875 233.387 90.4716 234.7C90.7659 235.344 91.0003 236.013 91.1716 236.7C91.3521 237.314 91.3521 237.966 91.1716 238.58L91.0716 238.77L90.9616 238.94C90.8516 239.05 90.7416 239.16 90.6216 239.26C90.3612 239.474 90.0716 239.649 89.7616 239.78C89.121 240.048 88.4489 240.233 87.7616 240.33C86.3006 240.532 84.8224 240.579 83.3516 240.47C84.815 240.817 86.3186 240.965 87.8216 240.91C88.5938 240.881 89.3581 240.743 90.0916 240.5C90.9326 240.277 91.6514 239.731 92.0916 238.98C92.4203 238.192 92.4937 237.322 92.3016 236.49C92.1423 235.732 91.9078 234.992 91.6016 234.28C91.0096 232.883 90.2898 231.544 89.4516 230.28L88.6816 231.21C89.8299 231.693 91.0133 232.087 92.2216 232.39C92.8366 232.536 93.4617 232.636 94.0916 232.69C94.7642 232.767 95.4455 232.702 96.0916 232.5C96.4918 232.386 96.8433 232.144 97.0916 231.81C97.2826 231.466 97.3596 231.07 97.3116 230.68C97.25 230.047 97.1054 229.425 96.8816 228.83C96.4461 227.663 95.9038 226.538 95.2616 225.47Z" fill="#263238"/>
<path d="M105.372 204.85C107.372 201.89 109.445 198.99 111.592 196.15C113.742 193.32 115.922 190.5 118.232 187.79C119.352 186.41 120.522 185.07 121.682 183.72C122.842 182.37 124.052 181.06 125.262 179.72C127.652 177.08 130.182 174.57 132.692 172.02C131.342 173.2 129.982 174.36 128.692 175.58C127.402 176.8 126.112 178.05 124.872 179.34C122.362 181.88 120.002 184.57 117.692 187.34C115.382 190.11 113.222 192.92 111.152 195.84C110.125 197.3 109.125 198.777 108.152 200.27C107.182 201.77 106.232 203.28 105.372 204.85Z" fill="#263238"/>
<path d="M107.892 204.99C108.952 203.78 110.002 202.56 111.082 201.37C112.162 200.18 113.222 198.98 114.312 197.8C116.492 195.44 118.682 193.09 120.952 190.8C122.052 189.64 123.202 188.51 124.332 187.38L127.812 184.04L129.562 182.39L131.342 180.77C132.502 179.66 133.752 178.65 134.932 177.55C132.352 179.47 129.832 181.49 127.432 183.64C125.032 185.79 122.702 188.01 120.432 190.3C118.162 192.59 115.992 194.96 113.902 197.41C111.812 199.86 109.772 202.38 107.892 204.99Z" fill="#263238"/>
<path d="M108.912 206.96C109.912 206.06 110.912 205.16 111.912 204.28C112.912 203.4 113.912 202.5 114.912 201.64C116.912 199.9 118.982 198.16 121.062 196.48C123.142 194.8 125.212 193.1 127.312 191.48C129.412 189.86 131.552 188.2 133.662 186.54C132.522 187.25 131.392 187.98 130.272 188.72C129.152 189.46 128.062 190.24 126.982 191.03C124.792 192.59 122.682 194.26 120.602 195.95C118.522 197.64 116.502 199.42 114.552 201.26C112.602 203.1 110.692 204.95 108.912 206.96Z" fill="#263238"/>
<path d="M64.0213 271.98C62.4913 273.58 61.0213 275.27 59.6213 276.98C58.2213 278.69 56.8313 280.42 55.4813 282.18C52.7813 285.69 50.2313 289.33 47.7913 293.03C45.3513 296.73 43.0713 300.53 40.9513 304.43C39.8813 306.36 38.8713 308.34 37.8713 310.32C37.3713 311.32 36.8713 312.32 36.4513 313.32L35.0713 316.32C37.1413 312.4 39.1813 308.48 41.4413 304.68C42.5413 302.76 43.6813 300.87 44.8213 298.98C45.9613 297.09 47.1613 295.23 48.3913 293.4C50.7713 289.68 53.3213 286.06 55.9213 282.49C58.5213 278.92 61.2013 275.39 64.0213 271.98Z" fill="#263238"/>
<path d="M65.1119 274.92C62.7219 278.12 60.5119 281.45 58.3819 284.83C56.2519 288.21 54.2719 291.68 52.3819 295.18C50.4919 298.68 48.6019 302.28 46.9719 305.89C45.3419 309.5 43.7919 313.22 42.4219 316.97C43.2719 315.16 44.0119 313.31 44.9019 311.52L46.1519 308.81L47.4719 306.13C48.3419 304.34 49.2519 302.56 50.1519 300.79C51.0519 299.02 52.0019 297.26 52.9719 295.52C54.8419 292 56.8319 288.52 58.8519 285.12C59.8585 283.4 60.8885 281.69 61.9419 279.99C62.9719 278.28 64.0419 276.6 65.1119 274.92Z" fill="#263238"/>
<path d="M67.8113 275.41C66.1013 278.28 64.6013 281.28 63.1313 284.28C61.6613 287.28 60.3513 290.33 59.0613 293.4C57.7713 296.47 56.6013 299.59 55.5313 302.74C54.9813 304.31 54.4813 305.9 53.9613 307.48C53.4413 309.06 53.0213 310.67 52.5713 312.28C53.7413 309.16 54.8513 306.03 56.0513 302.93C57.2513 299.83 58.4413 296.74 59.7213 293.67C61.0013 290.6 62.3013 287.55 63.6313 284.51C64.298 282.99 64.9846 281.477 65.6913 279.97C66.3713 278.41 67.0913 276.91 67.8113 275.41Z" fill="#263238"/>
<path opacity="0.1" d="M93.2221 256.28C94.9421 255.38 96.6821 254.61 98.3821 253.83C99.2221 253.41 100.092 253.06 100.892 252.62C101.657 252.247 102.381 251.794 103.052 251.27C103.609 250.694 104.047 250.015 104.342 249.27C104.742 248.46 105.042 247.59 105.342 246.72C105.992 244.97 106.612 243.18 107.342 241.39C107.407 243.327 107.236 245.265 106.832 247.16C106.635 248.125 106.368 249.074 106.032 250C105.696 251.046 105.112 251.996 104.332 252.77C103.519 253.432 102.608 253.965 101.632 254.35C98.9326 255.453 96.0722 256.112 93.1621 256.3L93.2221 256.28Z" fill="black"/>
<path d="M273.522 267.52C282.852 248.44 293.262 220.02 284.132 198.24C275.002 176.46 225.682 140.28 218.062 118.59C210.442 96.9 218.262 85.84 211.402 84.59C207.892 83.93 200.302 102.49 204.012 120.74C209.082 145.64 259.872 191.14 266.012 205.38C272.152 219.62 265.672 231.73 257.482 244.19L273.522 267.52Z" fill="#C4C4C4"/>
<path d="M178.341 201.53C177.798 201.499 177.27 201.343 176.797 201.074C176.325 200.805 175.921 200.43 175.618 199.978C175.314 199.527 175.12 199.011 175.049 198.472C174.979 197.933 175.034 197.384 175.211 196.87C175.261 196.72 180.321 181.97 180.671 157.63C180.881 143.05 173.221 136.97 165.121 130.53C157.601 124.53 149.821 118.38 150.421 105.8C150.901 95.75 158.081 91.09 164.421 86.99C170.761 82.89 176.511 79.15 177.791 70.48C180.601 51.66 163.721 34.04 163.601 33.87C162.998 33.1986 162.678 32.3201 162.707 31.418C162.736 30.5158 163.112 29.6598 163.758 29.0288C164.403 28.3977 165.267 28.0403 166.17 28.0312C167.072 28.0221 167.943 28.362 168.601 28.98C169.391 29.8 188.051 49.23 184.741 71.51C182.981 83.3 174.811 88.6 168.251 92.86C161.691 97.12 157.731 99.98 157.441 106.14C157.011 115.14 162.531 119.51 169.501 125.05C177.731 131.58 187.961 139.71 187.701 157.73C187.331 183.32 182.061 198.56 181.841 199.19C181.588 199.905 181.11 200.519 180.48 200.941C179.849 201.363 179.099 201.569 178.341 201.53Z" fill="#455A64"/>
<path d="M168.682 309.48C173.812 309.48 175.262 306.02 175.262 306.02C175.262 306.02 177.742 310.02 181.932 308.77C186.122 307.52 185.632 302.4 185.632 302.4C185.632 302.4 188.132 305.76 192.632 303.55C196.262 301.78 194.352 296.31 194.352 296.31C195.449 297.346 196.866 297.98 198.37 298.107C199.874 298.234 201.376 297.847 202.632 297.01C204.632 295.82 204.392 292.01 204.722 291.81C215.832 283.28 238.332 265.35 227.412 221.08C219.112 187.43 186.632 176.87 158.412 178.28C157.982 178.28 157.752 175.99 154.702 175.99C153.961 175.919 153.215 176.066 152.557 176.412C151.898 176.759 151.354 177.29 150.992 177.94C150.379 177.233 149.542 176.758 148.62 176.596C147.699 176.434 146.749 176.594 145.932 177.05C145.041 177.469 144.318 178.178 143.883 179.061C143.447 179.943 143.323 180.948 143.532 181.91C142.412 181.31 140.612 178.45 136.532 180.05C132.452 181.65 133.192 186.05 133.192 186.05C132.312 185.42 131.263 185.069 130.182 185.04C129.1 185.012 128.034 185.308 127.122 185.89C126.232 186.41 125.992 190.18 125.592 190.82C120.682 185.11 117.912 191.69 119.052 193.72C120.592 196.47 116.762 198.21 116.052 198.93C98.682 216.21 93.632 252.49 106.442 275.47C122.792 304.81 148.972 307.47 163.342 306.71C163.252 306.68 164.602 309.48 168.682 309.48Z" fill="#455A64"/>
<path d="M184.822 290.8C168.262 282.32 157.952 264.36 151.912 247.38C145.512 229.319 143.822 209.925 147.002 191.03C147.242 189.61 145.072 189.03 144.832 190.43C141.44 210.352 143.358 230.815 150.392 249.76C156.732 266.66 167.122 284.25 183.682 292.76C184.972 293.41 186.112 291.46 184.822 290.8Z" fill="#37474F"/>
<path d="M165.222 296.59C151.626 284.353 141.106 269.083 134.515 252.02C127.925 234.956 125.45 216.579 127.292 198.38C127.442 196.94 125.182 196.95 125.042 198.38C123.192 216.874 125.718 235.543 132.416 252.88C139.115 270.217 149.798 285.735 163.602 298.18C164.702 299.15 166.292 297.56 165.222 296.59Z" fill="#37474F"/>
<path d="M204.881 292.28C222.881 281.77 228.881 260.84 229.091 241.01C229.1 240.812 229.049 240.616 228.946 240.447C228.843 240.278 228.691 240.143 228.511 240.06C229.132 239.046 229.638 237.966 230.021 236.84C230.491 235.47 228.321 234.84 227.851 236.24C226.885 239.243 224.863 241.795 222.161 243.424C219.459 245.053 216.259 245.648 213.151 245.1C213.092 245.095 213.031 245.095 212.971 245.1C213.292 243.481 213.523 241.845 213.661 240.2C213.751 240.217 213.842 240.217 213.931 240.2C217.224 240.064 220.403 238.961 223.071 237.027C225.739 235.094 227.777 232.416 228.931 229.33C228.989 229.193 229.013 229.045 229.002 228.897C228.991 228.749 228.945 228.605 228.868 228.479C228.791 228.352 228.685 228.245 228.558 228.167C228.432 228.089 228.289 228.042 228.141 228.03C228.129 227.933 228.102 227.839 228.061 227.75C228.047 227.722 228.03 227.695 228.011 227.67C228.148 227.546 228.252 227.389 228.313 227.214C228.375 227.04 228.391 226.853 228.361 226.67C224.601 204.28 207.231 192.4 187.041 186.16L187.411 185.94C187.539 185.866 187.65 185.767 187.74 185.65C187.829 185.533 187.894 185.399 187.932 185.256C187.969 185.114 187.979 184.965 187.959 184.819C187.939 184.673 187.891 184.532 187.816 184.405C187.742 184.278 187.644 184.166 187.526 184.077C187.409 183.988 187.275 183.922 187.133 183.885C186.99 183.847 186.842 183.838 186.696 183.858C186.55 183.877 186.409 183.926 186.281 184C185.421 184.48 184.581 185 183.731 185.5L183.611 185.58C174.679 190.984 166.592 197.676 159.611 205.44C159.39 205.56 159.214 205.75 159.111 205.98C157.651 207.62 156.221 209.29 154.861 211.03C154.801 208.97 154.801 206.9 154.861 204.83C155.042 204.825 155.218 204.776 155.375 204.687C155.532 204.598 155.665 204.472 155.761 204.32C162.208 194.745 171.169 187.132 181.661 182.32C182.981 181.71 181.841 179.77 180.531 180.32C170.373 185.002 161.601 192.237 155.071 201.32C155.548 195.483 156.607 189.707 158.231 184.08C158.283 183.802 158.228 183.515 158.078 183.275C157.928 183.036 157.694 182.861 157.421 182.786C157.149 182.71 156.858 182.74 156.606 182.868C156.355 182.997 156.16 183.215 156.061 183.48C144.311 224.4 162.811 266.06 196.541 290.37C197.721 291.22 198.841 289.27 197.681 288.43L197.271 288.12C205.63 284.635 212.698 278.636 217.494 270.955C222.291 263.273 224.579 254.29 224.041 245.25C224.034 245.063 223.979 244.88 223.881 244.72C224.955 244.004 225.933 243.153 226.791 242.19C226.311 261.19 220.411 281.09 202.621 290.78C202.486 290.852 202.367 290.951 202.271 291.07L200.271 290.71C198.851 290.45 198.271 292.62 199.671 292.88L203.471 293.58C203.654 293.613 203.843 293.604 204.021 293.552C204.2 293.5 204.364 293.408 204.501 293.282C204.638 293.156 204.743 293 204.809 292.826C204.875 292.652 204.9 292.465 204.881 292.28ZM184.431 187.78C203.431 193.26 220.101 203.44 225.291 223.02C215.051 206.84 197.611 192.02 178.041 191.96C180.111 190.44 182.251 189.06 184.431 187.73V187.78ZM174.921 194.28C194.681 192.73 212.391 207.28 222.861 223.36C216.295 215.597 208.101 209.374 198.86 205.133C189.619 200.892 179.559 198.737 169.391 198.82C171.171 197.28 173.031 195.73 174.921 194.28ZM162.841 205.14C164.201 203.7 165.611 202.32 167.041 200.97C167.204 201.058 167.387 201.1 167.571 201.09C179 200.69 190.341 203.215 200.521 208.425C210.7 213.634 219.381 221.357 225.741 230.86C225.641 231.03 225.551 231.21 225.441 231.38C217.614 222.627 207.933 215.73 197.105 211.189C186.276 206.648 174.571 204.578 162.841 205.13V205.14ZM155.221 217.28L158.401 217.18C159.851 217.13 159.851 214.88 158.401 214.93L155.051 215.04C155.051 214.61 154.971 214.18 154.951 213.75C155.132 213.75 155.311 213.708 155.473 213.626C155.634 213.545 155.774 213.426 155.881 213.28C157.411 211.28 159.031 209.37 160.691 207.5C172.517 206.606 184.39 208.459 195.381 212.914C206.373 217.369 216.185 224.305 224.051 233.18C223.275 234.038 222.399 234.8 221.441 235.45C221.394 235.35 221.326 235.262 221.241 235.19C204.817 221.426 183.888 214.215 162.471 214.94C161.021 214.94 161.021 217.24 162.471 217.19C183.193 216.456 203.461 223.364 219.421 236.6C218.214 237.159 216.935 237.549 215.621 237.76C215.591 237.618 215.533 237.483 215.448 237.364C215.364 237.245 215.256 237.145 215.131 237.07C197.511 225.62 176.676 220.137 155.701 221.43C155.511 220.06 155.351 218.68 155.221 217.28ZM206.871 255.45C206.086 256.872 205.204 258.239 204.231 259.54C196.549 255.844 189.78 250.493 184.411 243.87C184.386 243.712 184.32 243.564 184.22 243.44C184.12 243.315 183.99 243.219 183.841 243.16C179.435 237.545 176.118 231.155 174.061 224.32C175.211 224.47 176.351 224.63 177.491 224.82C177.491 224.82 177.491 224.82 177.491 224.87C183.603 238.055 193.943 248.821 206.871 255.46V255.45ZM201.271 249.45C204.619 249.242 207.83 248.049 210.501 246.02C209.898 248.575 209.027 251.059 207.901 253.43C205.612 252.247 203.398 250.925 201.271 249.47V249.45ZM200.441 263.28C196.966 264.881 193.143 265.58 189.325 265.312C185.508 265.045 181.82 263.82 178.601 261.75C179.324 260.5 180.216 259.356 181.251 258.35C183.711 260.481 186.775 261.79 190.015 262.093C193.256 262.396 196.51 261.678 199.321 260.04C199.472 259.96 199.599 259.843 199.691 259.7C200.691 260.27 201.751 260.82 202.801 261.34C202.251 261.99 201.661 262.61 201.071 263.2C200.858 263.168 200.64 263.195 200.441 263.28ZM182.981 256.87C185.141 255.31 187.639 254.282 190.271 253.87C190.496 253.832 190.7 253.719 190.851 253.55C192.971 255.313 195.209 256.927 197.551 258.38C195.246 259.597 192.632 260.103 190.039 259.836C187.446 259.569 184.991 258.541 182.981 256.88V256.87ZM184.181 231.43C184.065 231.475 183.957 231.539 183.861 231.62C182.533 229.591 181.321 227.487 180.231 225.32C182.471 225.76 184.681 226.32 186.881 226.92C186.989 227.865 186.783 228.82 186.295 229.636C185.807 230.453 185.065 231.087 184.181 231.44V231.43ZM189.181 227.55C192.323 228.49 195.414 229.591 198.441 230.85C198.071 232.951 197.112 234.904 195.677 236.483C194.241 238.062 192.388 239.201 190.331 239.77C190.282 239.791 190.235 239.818 190.191 239.85C188.361 237.833 186.664 235.698 185.111 233.46C186.28 232.969 187.283 232.151 188 231.105C188.716 230.058 189.116 228.828 189.151 227.56L189.181 227.55ZM191.891 241.64C194.061 240.868 195.998 239.554 197.517 237.823C199.036 236.092 200.088 234.002 200.571 231.75C201.941 232.36 203.291 233.01 204.631 233.68C204.631 233.68 204.631 233.74 204.631 233.78C204.095 236.303 202.811 238.606 200.947 240.39C199.083 242.173 196.726 243.355 194.181 243.78C193.368 243.1 192.595 242.39 191.861 241.65L191.891 241.64ZM156.101 223.64C159.161 223.47 162.211 223.46 165.241 223.57C161.891 225.603 159.352 228.739 158.061 232.44C157.241 229.57 156.601 226.64 156.071 223.67L156.101 223.64ZM158.931 235.42C159.128 235.387 159.31 235.296 159.454 235.159C159.598 235.022 159.698 234.844 159.741 234.65C160.279 232.395 161.341 230.298 162.84 228.529C164.339 226.76 166.234 225.37 168.371 224.47C168.517 224.414 168.645 224.321 168.744 224.2C168.842 224.079 168.907 223.934 168.931 223.78C169.931 223.86 170.931 223.93 171.861 224.03C171.796 224.238 171.796 224.462 171.861 224.67C172.88 228.159 174.219 231.547 175.861 234.79C172.976 234.839 170.152 235.63 167.662 237.087C165.171 238.544 163.098 240.619 161.641 243.11C160.601 240.62 159.711 238.05 158.901 235.45L158.931 235.42ZM162.771 245.69C162.879 245.598 162.967 245.486 163.031 245.36C164.285 242.73 166.296 240.535 168.807 239.058C171.318 237.581 174.214 236.888 177.121 237.07C178.358 239.274 179.738 241.396 181.251 243.42C178.087 244.035 175.16 245.529 172.806 247.731C170.452 249.933 168.766 252.754 167.941 255.87C166.015 252.589 164.279 249.2 162.741 245.72L162.771 245.69ZM169.451 258.38C169.632 258.233 169.756 258.028 169.801 257.8C170.343 254.61 171.902 251.682 174.245 249.451C176.588 247.22 179.589 245.806 182.801 245.42C183.531 246.31 184.291 247.19 185.071 248.04C178.951 250.8 172.681 254.5 171.471 261.49C170.771 260.49 170.081 259.46 169.421 258.41L169.451 258.38ZM172.971 263.63C173.144 263.545 173.291 263.416 173.398 263.256C173.505 263.097 173.568 262.912 173.581 262.72C174.161 255.66 180.961 252.29 186.731 249.72C187.451 250.44 188.181 251.14 188.931 251.82C185.446 252.511 182.235 254.196 179.685 256.671C177.135 259.147 175.356 262.306 174.561 265.77C174.001 265.11 173.461 264.39 172.941 263.66L172.971 263.63ZM188.841 270.71C186.677 271.054 184.464 270.947 182.343 270.396C180.221 269.845 178.236 268.863 176.511 267.51C176.729 266.212 177.095 264.944 177.601 263.73C180.416 265.507 183.558 266.702 186.842 267.243C190.126 267.784 193.486 267.661 196.721 266.88C194.525 268.436 192.2 269.801 189.771 270.96C189.64 270.851 189.484 270.774 189.318 270.735C189.151 270.697 188.977 270.699 188.811 270.74L188.841 270.71ZM179.321 271.71C181.135 272.467 183.061 272.923 185.021 273.06C183.921 273.5 182.811 273.94 181.691 274.37C180.851 273.54 180.071 272.65 179.291 271.75L179.321 271.71ZM183.321 276.13C191.991 272.77 199.971 268.78 205.771 261.13C208.924 256.962 211.203 252.2 212.471 247.13C212.471 247.13 212.471 247.13 212.541 247.13C214.434 247.436 216.365 247.416 218.251 247.07C216.997 254.842 213.568 262.1 208.362 268.005C203.156 273.91 196.385 278.221 188.831 280.44C188.608 280.502 188.414 280.64 188.281 280.83C186.601 279.38 184.921 277.8 183.331 276.17L183.321 276.13ZM195.441 286.56C195.361 286.56 195.321 286.65 195.251 286.69C193.471 285.32 191.711 283.92 190.021 282.46C197.979 280.024 205.079 275.375 210.494 269.056C215.909 262.736 219.414 255.007 220.601 246.77C220.617 246.691 220.617 246.609 220.601 246.53C221.021 246.38 221.431 246.19 221.831 246.01C222.253 254.689 219.931 263.28 215.196 270.565C210.461 277.85 203.553 283.461 195.451 286.6L195.441 286.56ZM198.141 247.13C197.491 246.63 196.841 246.13 196.211 245.59C198.745 244.854 201.04 243.462 202.865 241.555C204.689 239.648 205.978 237.294 206.601 234.73C208.268 235.617 209.915 236.55 211.541 237.53C211.509 239.17 211.376 240.806 211.141 242.43C209.51 244.198 207.48 245.55 205.221 246.374C202.961 247.199 200.538 247.472 198.151 247.17L198.141 247.13Z" fill="#37474F"/>
<path d="M152.511 296.44C152.619 296.383 152.714 296.305 152.791 296.21C153.841 296.75 155.121 295.36 154.111 294.47C141.931 283.657 132.532 270.072 126.708 254.861C120.884 239.651 118.807 223.262 120.651 207.08C120.811 205.65 118.561 205.66 118.401 207.08C118.311 207.89 118.241 208.7 118.171 209.5C112.916 209.823 108.001 212.206 104.491 216.13C103.491 217.21 105.111 218.8 106.081 217.72C109.129 214.262 113.405 212.127 118.001 211.77C117.881 213.77 117.815 215.75 117.801 217.71C111.515 219.005 105.692 221.965 100.941 226.28C99.8612 227.28 101.461 228.83 102.531 227.87C106.85 223.981 112.111 221.289 117.791 220.06C117.791 221.33 117.851 222.61 117.911 223.88C111.046 224.972 104.75 228.347 100.041 233.46C99.0412 234.52 100.641 236.12 101.631 235.05C105.97 230.346 111.744 227.21 118.051 226.13C118.101 226.83 118.161 227.53 118.221 228.23C111.101 230.202 104.575 233.898 99.2212 238.99C98.1712 239.99 99.7612 241.57 100.811 240.58C105.802 235.844 111.864 232.386 118.481 230.5C118.651 231.98 118.841 233.45 119.071 234.91C118.861 234.87 118.644 234.898 118.451 234.99C110.587 238.383 103.977 244.144 99.5412 251.47C98.7812 252.71 100.721 253.84 101.481 252.61C105.701 245.685 111.961 240.236 119.401 237.01C119.651 238.36 119.911 239.71 120.211 241.01C119.973 241.03 119.748 241.128 119.571 241.29C115.431 245.121 112.145 249.782 109.927 254.968C107.71 260.154 106.611 265.75 106.701 271.39C106.728 271.67 106.858 271.93 107.066 272.12C107.274 272.309 107.545 272.414 107.826 272.414C108.108 272.414 108.379 272.309 108.587 272.12C108.795 271.93 108.925 271.67 108.951 271.39C108.861 266.144 109.864 260.936 111.895 256.099C113.927 251.261 116.943 246.899 120.751 243.29C121.231 245.29 121.751 247.24 122.401 249.19C115.857 256.677 111.839 266.038 110.921 275.94C110.68 275.954 110.449 276.043 110.26 276.195C110.071 276.346 109.934 276.552 109.867 276.784C109.8 277.017 109.807 277.264 109.886 277.493C109.966 277.721 110.114 277.919 110.311 278.06C114.323 280.772 118.905 282.526 123.703 283.187C128.5 283.848 133.385 283.397 137.981 281.87C138.171 281.819 138.341 281.713 138.471 281.565C138.601 281.417 138.685 281.235 138.711 281.04C139.711 282.35 140.711 283.63 141.771 284.9C137.477 287.531 132.496 288.823 127.465 288.612C122.433 288.4 117.579 286.693 113.521 283.71C112.331 282.87 111.201 284.82 112.381 285.65C116.843 288.88 122.168 290.701 127.673 290.879C133.178 291.057 138.61 289.584 143.271 286.65C144.471 288.03 145.708 289.383 146.981 290.71C143.492 292.69 139.639 293.948 135.654 294.409C131.668 294.869 127.63 294.523 123.781 293.39C123.503 293.339 123.216 293.393 122.976 293.543C122.737 293.693 122.562 293.928 122.487 294.2C122.412 294.473 122.441 294.763 122.57 295.015C122.698 295.267 122.916 295.461 123.181 295.56C127.412 296.792 131.852 297.143 136.224 296.591C140.597 296.039 144.809 294.596 148.601 292.35C149.391 293.13 150.191 293.9 151.011 294.67C144.931 297.725 138.12 299.027 131.341 298.43C129.901 298.31 129.901 300.56 131.341 300.68C138.657 301.294 145.997 299.824 152.511 296.44ZM116.221 263.44C117.951 259.206 120.311 255.258 123.221 251.73C124.796 256.393 126.701 260.938 128.921 265.33C124.607 265.978 120.198 265.32 116.261 263.44H116.221ZM115.451 265.54C119.918 267.597 124.9 268.266 129.751 267.46C129.82 267.443 129.887 267.419 129.951 267.39C130.871 269.11 131.851 270.8 132.871 272.47C126.535 273.643 119.996 272.998 114.011 270.61C114.398 268.888 114.878 267.189 115.451 265.52V265.54ZM112.671 276.91C112.807 276.816 112.919 276.692 113.001 276.549C113.082 276.405 113.13 276.245 113.141 276.08C113.251 274.99 113.401 273.91 113.591 272.85C119.959 275.309 126.89 275.926 133.591 274.63C133.774 274.597 133.943 274.514 134.081 274.39C135.231 276.19 136.451 277.95 137.711 279.69C137.609 279.671 137.504 279.671 137.401 279.69C133.326 281.067 128.998 281.53 124.724 281.046C120.45 280.562 116.335 279.143 112.671 276.89V276.91Z" fill="#37474F"/>
<path d="M140.202 248.28C131.202 229.03 132.902 207.69 134.742 187.14C134.872 185.7 132.622 185.71 132.492 187.14C130.602 208.14 129.092 229.75 138.252 249.41C138.872 250.75 140.812 249.61 140.202 248.28Z" fill="#37474F"/>
<path d="M151.942 186.73C152.262 183.88 152.572 181.04 152.892 178.19C153.052 176.75 150.802 176.76 150.642 178.19C150.322 181.04 150.002 183.88 149.692 186.73C149.532 188.17 151.782 188.16 151.942 186.73Z" fill="#37474F"/>
<path d="M185.652 302.18C168.047 294.387 154.197 280.005 147.072 262.12C146.542 260.79 144.362 261.37 144.902 262.72C152.186 281.173 166.408 296.038 184.522 304.13C185.832 304.71 186.972 302.77 185.652 302.18Z" fill="#37474F"/>
<path d="M196.102 295.06C178.607 281.635 164.673 264.124 155.522 244.06C154.912 242.75 152.972 243.89 153.572 245.2C162.933 265.581 177.147 283.357 194.972 296.97C196.122 297.89 197.242 295.93 196.102 295.06Z" fill="#37474F"/>
<path d="M154.122 240.28C154.096 240 153.966 239.74 153.758 239.55C153.55 239.361 153.278 239.256 152.997 239.256C152.716 239.256 152.445 239.361 152.236 239.55C152.028 239.74 151.899 240 151.872 240.28C151.899 240.56 152.028 240.82 152.236 241.01C152.445 241.199 152.716 241.304 152.997 241.304C153.278 241.304 153.55 241.199 153.758 241.01C153.966 240.82 154.096 240.56 154.122 240.28Z" fill="#37474F"/>
<path d="M145.242 242.45C138.856 223.062 138.063 202.268 142.952 182.45C143.292 181.05 141.122 180.45 140.782 181.86C135.79 202.064 136.583 223.265 143.072 243.04C143.522 244.42 145.692 243.84 145.242 242.45Z" fill="#37474F"/>
<path d="M142.392 253.81C142.365 253.53 142.235 253.27 142.027 253.08C141.819 252.891 141.548 252.786 141.267 252.786C140.985 252.786 140.714 252.891 140.506 253.08C140.298 253.27 140.168 253.53 140.142 253.81C140.168 254.09 140.298 254.35 140.506 254.54C140.714 254.729 140.985 254.834 141.267 254.834C141.548 254.834 141.819 254.729 142.027 254.54C142.235 254.35 142.365 254.09 142.392 253.81Z" fill="#37474F"/>
<path d="M161.852 304.81C162.59 305.191 163.351 305.526 164.132 305.81C165.502 306.31 166.132 304.13 164.732 303.64C161.61 302.508 158.916 300.437 157.022 297.71C156.192 296.54 154.242 297.66 155.072 298.85C155.242 299.09 155.422 299.31 155.602 299.54C151.013 301.633 145.945 302.449 140.932 301.9C139.492 301.75 139.502 304.01 140.932 304.15C146.488 304.729 152.095 303.745 157.122 301.31C157.854 302.038 158.643 302.707 159.482 303.31C157.677 303.922 155.802 304.301 153.902 304.44C152.462 304.55 152.452 306.8 153.902 306.69C156.635 306.488 159.318 305.854 161.852 304.81Z" fill="#37474F"/>
<path d="M121.132 203C121.418 201.06 121.702 199.127 121.982 197.2C122.007 197.018 121.989 196.833 121.93 196.66C121.871 196.486 121.772 196.329 121.642 196.2C122.719 195.82 123.695 195.197 124.494 194.381C125.293 193.564 125.895 192.575 126.252 191.49C126.722 190.12 124.552 189.49 124.082 190.89C123.763 191.829 123.184 192.657 122.412 193.279C121.64 193.9 120.707 194.289 119.722 194.4C118.292 194.54 118.282 196.79 119.722 196.65H119.812C119.532 198.58 119.242 200.5 118.962 202.43C118.752 203.81 120.922 204.43 121.132 203Z" fill="#37474F"/>
<path d="M164.862 33.69C167.546 33.69 169.722 31.5141 169.722 28.83C169.722 26.1459 167.546 23.97 164.862 23.97C162.178 23.97 160.002 26.1459 160.002 28.83C160.002 31.5141 162.178 33.69 164.862 33.69Z" fill="#C7C7C7"/>
<path d="M169.201 27.86C169.201 28.8212 168.916 29.7609 168.382 30.5601C167.848 31.3593 167.089 31.9822 166.201 32.3501C165.313 32.7179 164.336 32.8142 163.393 32.6266C162.451 32.4391 161.585 31.9762 160.905 31.2965C160.225 30.6169 159.762 29.7509 159.575 28.8081C159.387 27.8654 159.484 26.8882 159.851 26.0002C160.219 25.1121 160.842 24.3531 161.641 23.8191C162.441 23.285 163.38 23 164.341 23C164.98 22.9987 165.613 23.1235 166.203 23.3673C166.793 23.611 167.329 23.969 167.781 24.4205C168.232 24.8721 168.59 25.4084 168.834 25.9986C169.078 26.5888 169.203 27.2214 169.201 27.86Z" fill="#DBDBDB"/>
<path d="M106.992 280.28C106.992 280.28 125.042 249.71 129.862 244.16C133.192 240.32 145.512 233.53 153.442 227.01C155.042 225.69 157.672 219.96 161.212 219.53C165.972 218.95 173.112 228.84 170.372 237.66C167.632 246.48 154.372 255.07 153.372 256.83C152.372 258.59 159.942 278.24 157.242 283.59C154.542 288.94 131.942 302.2 128.242 302.03C124.542 301.86 105.022 285.67 106.992 280.28Z" fill="#C4C4C4"/>
<path d="M159.881 239.21C162.3 241.077 165.325 241.982 168.371 241.75C169.221 240.466 169.894 239.074 170.371 237.61C173.111 228.8 165.971 218.91 161.211 219.49C157.671 219.92 155.031 225.65 153.441 226.97C153.441 226.97 154.061 234.43 159.881 239.21Z" fill="#EBEBEB"/>
<path d="M167.192 222.52C167.205 222.512 167.22 222.508 167.235 222.51C167.25 222.511 167.264 222.517 167.276 222.527C167.287 222.538 167.295 222.551 167.298 222.566C167.301 222.581 167.299 222.596 167.292 222.61C166.162 224.2 165.102 225.84 164.132 227.53C163.113 228.992 162.603 230.749 162.682 232.53C162.676 232.548 162.664 232.563 162.649 232.574C162.634 232.585 162.616 232.59 162.597 232.59C162.578 232.59 162.56 232.585 162.545 232.574C162.529 232.563 162.518 232.548 162.512 232.53C162.101 230.759 162.262 228.903 162.972 227.23C163.872 225.28 165.602 223.88 167.192 222.52Z" fill="#263238"/>
<path d="M163.042 219.4C163.102 219.4 163.182 219.4 163.142 219.49C162.111 221.058 161.182 222.692 160.362 224.38C159.642 225.8 158.302 227.96 159.362 229.5C159.542 229.77 159.362 229.84 159.152 229.61C157.782 228.24 158.452 225.99 159.102 224.45C160.022 222.494 161.368 220.768 163.042 219.4Z" fill="#263238"/>
<path d="M115.862 265.51C115.377 266.818 114.802 268.091 114.142 269.32C113.522 270.56 112.822 271.75 112.142 272.93C111.462 274.11 110.692 275.27 109.902 276.4C109.112 277.53 108.302 278.65 107.412 279.75C107.765 278.393 108.258 277.076 108.882 275.82C109.487 274.567 110.155 273.346 110.882 272.16C111.612 270.98 112.362 269.82 113.192 268.71C113.999 267.577 114.892 266.507 115.862 265.51Z" fill="#263238"/>
<path d="M156.382 284.75C154.147 287.407 151.617 289.803 148.842 291.89C146.101 294.016 143.229 295.967 140.242 297.73C137.238 299.476 134.117 301.013 130.902 302.33C127.691 303.643 124.363 304.647 120.962 305.33C124.102 303.85 127.222 302.45 130.262 300.9C133.302 299.35 136.262 297.73 139.262 295.99C142.262 294.25 145.092 292.47 147.962 290.61C150.832 288.75 153.652 286.86 156.382 284.75Z" fill="#263238"/>
<path d="M136.132 298.88C135.641 299.769 135.058 300.604 134.392 301.37C133.74 302.145 133.035 302.873 132.282 303.55C130.794 304.942 129.057 306.041 127.162 306.79C127.912 306.09 128.662 305.45 129.402 304.79C130.142 304.13 130.892 303.48 131.612 302.79C133.102 301.49 134.542 300.15 136.132 298.88Z" fill="#263238"/>
<path d="M204.851 302.06C204.851 302.06 171.551 254.39 181.411 234.65C188.681 220.11 223.901 199.52 223.901 199.52C223.901 199.52 207.281 177.99 207.061 173.62C206.841 169.25 217.831 169.06 223.741 170.49C229.651 171.92 253.741 201.23 254.071 204.91C254.401 208.59 246.311 221.91 247.421 227.63C248.531 233.35 256.961 239.96 257.541 240.94C258.121 241.92 263.671 265.94 258.711 273.86C253.751 281.78 211.991 305.79 204.851 302.06Z" fill="#C4C4C4"/>
<path d="M216.092 189.02C225.342 190.09 230.412 179.9 231.812 176.56C228.442 173.29 225.462 170.9 223.732 170.48C217.842 169.06 206.842 169.25 207.062 173.62C207.202 176.33 212.262 183.76 216.092 189.02Z" fill="#EBEBEB"/>
<path d="M214.262 169.45C214.267 169.437 214.276 169.426 214.288 169.418C214.299 169.41 214.313 169.406 214.327 169.406C214.341 169.406 214.354 169.41 214.366 169.418C214.378 169.426 214.387 169.437 214.392 169.45C214.692 171.45 215.072 173.5 215.552 175.45C215.829 177.288 216.7 178.984 218.032 180.28C218.047 180.296 218.055 180.316 218.056 180.338C218.057 180.359 218.05 180.38 218.037 180.397C218.024 180.414 218.005 180.426 217.984 180.43C217.962 180.434 217.94 180.431 217.922 180.42C216.329 179.372 215.111 177.845 214.442 176.06C213.702 173.93 214.022 171.66 214.262 169.45Z" fill="#263238"/>
<path d="M208.852 170.08C208.852 170.061 208.859 170.044 208.873 170.031C208.886 170.017 208.904 170.01 208.922 170.01C208.941 170.01 208.958 170.017 208.972 170.031C208.985 170.044 208.992 170.061 208.992 170.08C209.337 172.02 209.811 173.934 210.412 175.81C210.882 177.41 211.412 180.02 213.322 180.45C213.652 180.52 213.582 180.69 213.242 180.68C211.242 180.63 210.092 178.44 209.472 176.79C208.762 174.629 208.55 172.335 208.852 170.08Z" fill="#263238"/>
<path d="M183.271 262.12C185.501 266.25 187.661 270.4 189.821 274.55C191.981 278.7 194.131 282.84 196.351 286.94C198.571 291.04 200.801 295.14 203.101 299.2C205.401 303.26 207.821 307.2 210.321 311.2C207.192 307.685 204.334 303.937 201.771 299.99C199.181 296.06 196.831 291.99 194.591 287.86C192.351 283.73 190.311 279.49 188.421 275.2C186.531 270.91 184.741 266.58 183.271 262.12Z" fill="#263238"/>
<path d="M248.202 229.91C250.727 232.978 253.417 235.906 256.262 238.68C256.622 239.01 256.982 239.34 257.352 239.68C257.776 240.013 258.174 240.377 258.542 240.77C259.233 241.672 259.72 242.712 259.972 243.82C260.456 245.824 260.747 247.87 260.842 249.93C261.009 253.956 260.896 257.989 260.502 262C260.147 265.996 259.549 269.967 258.712 273.89C258.712 269.89 258.862 265.89 258.942 261.89C259.022 257.89 259.072 253.89 258.842 250.02C258.785 248.086 258.551 246.161 258.142 244.27C257.995 243.411 257.676 242.591 257.202 241.86C256.887 241.509 256.553 241.175 256.202 240.86C255.842 240.5 255.482 240.13 255.142 239.76C252.442 236.767 250.112 233.46 248.202 229.91Z" fill="#263238"/>
<path d="M199.952 295.46C200.865 297.298 201.654 299.196 202.312 301.14C202.972 303.07 203.592 305 204.082 307.02C202.925 305.304 202.009 303.436 201.362 301.47C200.671 299.525 200.198 297.509 199.952 295.46Z" fill="#263238"/>
<path d="M259.852 259.03C260.817 260.288 261.583 261.688 262.122 263.18C262.399 263.925 262.616 264.691 262.772 265.47C262.957 266.256 262.997 267.069 262.892 267.87C262.612 267.11 262.312 266.41 262.022 265.69C261.732 264.97 261.462 264.25 261.182 263.53C260.617 262.069 260.172 260.564 259.852 259.03Z" fill="#263238"/>
<path d="M143.73 96.66C178.927 96.66 207.46 75.0219 207.46 48.33C207.46 21.6381 178.927 0 143.73 0C108.533 0 80 21.6381 80 48.33C80 75.0219 108.533 96.66 143.73 96.66Z" fill="#C4C4C4"/>
<path d="M102.524 38.5C102.924 38.5 103.249 38.6333 103.499 38.9C103.749 39.1667 103.874 39.5 103.874 39.9V54.475C103.874 54.9083 103.724 55.275 103.424 55.575C103.141 55.8583 102.783 56 102.349 56C102.116 56 101.883 55.9667 101.649 55.9C101.433 55.8167 101.274 55.7083 101.174 55.575L91.9993 43.925V54.6C91.9993 55 91.866 55.3333 91.5993 55.6C91.3493 55.8667 91.016 56 90.5993 56C90.1993 56 89.8743 55.8667 89.6243 55.6C89.3743 55.3333 89.2493 55 89.2493 54.6V40.025C89.2493 39.5917 89.391 39.2333 89.6743 38.95C89.9743 38.65 90.341 38.5 90.7743 38.5C91.0243 38.5 91.266 38.55 91.4993 38.65C91.7493 38.75 91.9327 38.8833 92.0493 39.05L101.149 50.65V39.9C101.149 39.5 101.274 39.1667 101.524 38.9C101.791 38.6333 102.124 38.5 102.524 38.5ZM119.9 49.325C119.9 50.6583 119.6 51.8583 119 52.925C118.4 53.975 117.575 54.7917 116.525 55.375C115.491 55.9583 114.35 56.25 113.1 56.25C111.833 56.25 110.683 55.9583 109.65 55.375C108.616 54.7917 107.8 53.975 107.2 52.925C106.6 51.8583 106.3 50.6583 106.3 49.325C106.3 47.9917 106.6 46.8 107.2 45.75C107.8 44.6833 108.616 43.8583 109.65 43.275C110.683 42.675 111.833 42.375 113.1 42.375C114.35 42.375 115.491 42.675 116.525 43.275C117.575 43.8583 118.4 44.6833 119 45.75C119.6 46.8 119.9 47.9917 119.9 49.325ZM116.9 49.325C116.9 48.5083 116.725 47.7833 116.375 47.15C116.041 46.5 115.583 46 115 45.65C114.433 45.3 113.8 45.125 113.1 45.125C112.4 45.125 111.758 45.3 111.175 45.65C110.608 46 110.15 46.5 109.8 47.15C109.466 47.7833 109.3 48.5083 109.3 49.325C109.3 50.1417 109.466 50.8667 109.8 51.5C110.15 52.1333 110.608 52.625 111.175 52.975C111.758 53.325 112.4 53.5 113.1 53.5C113.8 53.5 114.433 53.325 115 52.975C115.583 52.625 116.041 52.1333 116.375 51.5C116.725 50.8667 116.9 50.1417 116.9 49.325ZM142.721 53.55C142.938 53.6833 143.105 53.8583 143.221 54.075C143.355 54.2917 143.421 54.5167 143.421 54.75C143.421 55.05 143.321 55.325 143.121 55.575C142.871 55.875 142.488 56.025 141.971 56.025C141.571 56.025 141.205 55.9333 140.871 55.75C139.671 55.0667 139.071 53.675 139.071 51.575C139.071 50.975 138.871 50.5 138.471 50.15C138.088 49.8 137.53 49.625 136.796 49.625H132.121V54.475C132.121 54.925 131.996 55.2917 131.746 55.575C131.513 55.8583 131.196 56 130.796 56C130.313 56 129.888 55.8583 129.521 55.575C129.171 55.275 128.996 54.9083 128.996 54.475V40.025C128.996 39.5917 129.138 39.2333 129.421 38.95C129.721 38.65 130.088 38.5 130.521 38.5H137.721C138.588 38.5 139.405 38.7333 140.171 39.2C140.938 39.6667 141.546 40.3083 141.996 41.125C142.463 41.9417 142.696 42.8583 142.696 43.875C142.696 44.7083 142.471 45.525 142.021 46.325C141.571 47.1083 140.988 47.7333 140.271 48.2C141.321 48.9333 141.896 49.9167 141.996 51.15C142.046 51.4167 142.071 51.675 142.071 51.925C142.138 52.4417 142.205 52.8167 142.271 53.05C142.338 53.2667 142.488 53.4333 142.721 53.55ZM137.596 47.05C137.896 47.05 138.188 46.9083 138.471 46.625C138.755 46.3417 138.988 45.9667 139.171 45.5C139.355 45.0167 139.446 44.5 139.446 43.95C139.446 43.4833 139.355 43.0583 139.171 42.675C138.988 42.275 138.755 41.9583 138.471 41.725C138.188 41.4917 137.896 41.375 137.596 41.375H132.121V47.05H137.596ZM157.454 49C157.437 49.4 157.279 49.725 156.979 49.975C156.679 50.225 156.329 50.35 155.929 50.35H147.679C147.879 51.3333 148.337 52.1083 149.054 52.675C149.771 53.225 150.579 53.5 151.479 53.5C152.162 53.5 152.696 53.4417 153.079 53.325C153.462 53.1917 153.762 53.0583 153.979 52.925C154.212 52.775 154.371 52.675 154.454 52.625C154.754 52.475 155.037 52.4 155.304 52.4C155.654 52.4 155.954 52.525 156.204 52.775C156.454 53.025 156.579 53.3167 156.579 53.65C156.579 54.1 156.346 54.5083 155.879 54.875C155.412 55.2583 154.787 55.5833 154.004 55.85C153.221 56.1167 152.429 56.25 151.629 56.25C150.229 56.25 149.004 55.9583 147.954 55.375C146.921 54.7917 146.121 53.9917 145.554 52.975C144.987 51.9417 144.704 50.7833 144.704 49.5C144.704 48.0667 145.004 46.8083 145.604 45.725C146.204 44.6417 146.996 43.8167 147.979 43.25C148.962 42.6667 150.012 42.375 151.129 42.375C152.229 42.375 153.262 42.675 154.229 43.275C155.212 43.875 155.996 44.6833 156.579 45.7C157.162 46.7167 157.454 47.8167 157.454 49ZM151.129 45.125C149.196 45.125 148.054 46.0333 147.704 47.85H154.254V47.675C154.187 46.975 153.846 46.375 153.229 45.875C152.612 45.375 151.912 45.125 151.129 45.125ZM158.848 53.925C158.698 53.725 158.623 53.475 158.623 53.175C158.623 52.7417 158.839 52.375 159.273 52.075C159.506 51.925 159.748 51.85 159.998 51.85C160.348 51.85 160.681 52.0083 160.998 52.325C161.498 52.8417 162.014 53.225 162.548 53.475C163.098 53.725 163.756 53.85 164.523 53.85C165.823 53.8 166.473 53.3083 166.473 52.375C166.473 51.8917 166.248 51.525 165.798 51.275C165.364 51.025 164.681 50.775 163.748 50.525C162.781 50.2583 161.989 49.9917 161.373 49.725C160.773 49.4583 160.248 49.0583 159.798 48.525C159.364 47.975 159.148 47.2417 159.148 46.325C159.148 45.525 159.373 44.8333 159.823 44.25C160.289 43.65 160.889 43.1917 161.623 42.875C162.373 42.5417 163.164 42.375 163.998 42.375C164.848 42.375 165.698 42.5333 166.548 42.85C167.398 43.1667 168.064 43.6333 168.548 44.25C168.764 44.5167 168.873 44.8167 168.873 45.15C168.873 45.5333 168.714 45.85 168.398 46.1C168.164 46.2833 167.898 46.375 167.598 46.375C167.231 46.375 166.931 46.2583 166.698 46.025C166.398 45.6583 166.006 45.3667 165.523 45.15C165.056 44.9333 164.523 44.825 163.923 44.825C162.656 44.825 162.023 45.2833 162.023 46.2C162.023 46.5667 162.139 46.8667 162.373 47.1C162.606 47.3167 162.898 47.4917 163.248 47.625C163.614 47.7417 164.123 47.8917 164.773 48.075C165.673 48.325 166.423 48.5833 167.023 48.85C167.623 49.1167 168.131 49.525 168.548 50.075C168.964 50.625 169.173 51.35 169.173 52.25C169.173 53.0667 168.931 53.7833 168.448 54.4C167.964 55 167.339 55.4583 166.573 55.775C165.823 56.0917 165.048 56.25 164.248 56.25C163.148 56.25 162.123 56.0667 161.173 55.7C160.223 55.3333 159.448 54.7417 158.848 53.925ZM181.275 42.625C181.708 42.625 182.067 42.775 182.35 43.075C182.633 43.3583 182.775 43.7167 182.775 44.15V50.5C182.775 52.3 182.275 53.7083 181.275 54.725C180.292 55.7417 178.883 56.25 177.05 56.25C175.217 56.25 173.808 55.7417 172.825 54.725C171.842 53.7083 171.35 52.3 171.35 50.5V44.15C171.35 43.7167 171.492 43.3583 171.775 43.075C172.058 42.775 172.417 42.625 172.85 42.625C173.283 42.625 173.642 42.775 173.925 43.075C174.208 43.3583 174.35 43.7167 174.35 44.15V50.5C174.35 51.5167 174.575 52.275 175.025 52.775C175.475 53.2583 176.15 53.5 177.05 53.5C177.967 53.5 178.65 53.2583 179.1 52.775C179.55 52.275 179.775 51.5167 179.775 50.5V44.15C179.775 43.7167 179.917 43.3583 180.2 43.075C180.483 42.775 180.842 42.625 181.275 42.625ZM188.939 54.475C188.939 54.9083 188.789 55.275 188.489 55.575C188.206 55.8583 187.848 56 187.414 56C186.998 56 186.648 55.8583 186.364 55.575C186.081 55.275 185.939 54.9083 185.939 54.475V39.025C185.939 38.5917 186.081 38.2333 186.364 37.95C186.664 37.65 187.031 37.5 187.464 37.5C187.881 37.5 188.231 37.65 188.514 37.95C188.798 38.2333 188.939 38.5917 188.939 39.025V54.475ZM198.471 53.175C198.704 53.175 198.913 53.2917 199.096 53.525C199.296 53.7417 199.396 54.0333 199.396 54.4C199.396 54.85 199.146 55.2333 198.646 55.55C198.163 55.85 197.613 56 196.996 56C195.963 56 195.088 55.7833 194.371 55.35C193.671 54.9 193.321 53.9583 193.321 52.525V45.625H192.171C191.771 45.625 191.438 45.4917 191.171 45.225C190.904 44.9583 190.771 44.625 190.771 44.225C190.771 43.8417 190.904 43.525 191.171 43.275C191.438 43.0083 191.771 42.875 192.171 42.875H193.321V41.275C193.321 40.8417 193.463 40.4833 193.746 40.2C194.046 39.9 194.413 39.75 194.846 39.75C195.263 39.75 195.613 39.9 195.896 40.2C196.179 40.4833 196.321 40.8417 196.321 41.275V42.875H198.096C198.496 42.875 198.829 43.0083 199.096 43.275C199.363 43.5417 199.496 43.875 199.496 44.275C199.496 44.6583 199.363 44.9833 199.096 45.25C198.829 45.5 198.496 45.625 198.096 45.625H196.321V52.4C196.321 52.75 196.413 53.0083 196.596 53.175C196.779 53.325 197.029 53.4 197.346 53.4C197.479 53.4 197.663 53.3667 197.896 53.3C198.096 53.2167 198.288 53.175 198.471 53.175Z" fill="#455A64"/>
</svg>
