<svg width="37" height="39" viewBox="0 0 37 39" fill="none" xmlns="http://www.w3.org/2000/svg">
<mask id="mask0_1456_2026" style="mask-type:alpha" maskUnits="userSpaceOnUse" x="0" y="0" width="37" height="39">
<path d="M36.5698 15.9545H18.9302V23.4886H29.0837C28.1372 28.275 24.1791 31.0227 18.9302 31.0227C12.7349 31.0227 7.74419 25.8818 7.74419 19.5C7.74419 13.1182 12.7349 7.97727 18.9302 7.97727C21.5977 7.97727 24.007 8.95227 25.9 10.5477L31.407 4.875C28.0512 1.86136 23.7488 0 18.9302 0C8.43256 0 0 8.68636 0 19.5C0 30.3136 8.43256 39 18.9302 39C28.3953 39 37 31.9091 37 19.5C37 18.3477 36.8279 17.1068 36.5698 15.9545Z" fill="white"/>
</mask>
<g mask="url(#mask0_1456_2026)">
<path fill-rule="evenodd" clip-rule="evenodd" d="M-1.7207 31.0226V7.97717L12.9072 19.4999L-1.7207 31.0226Z" fill="#FBBC05"/>
</g>
<mask id="mask1_1456_2026" style="mask-type:alpha" maskUnits="userSpaceOnUse" x="0" y="0" width="37" height="39">
<path d="M36.5698 15.9545H18.9302V23.4886H29.0837C28.1372 28.275 24.1791 31.0227 18.9302 31.0227C12.7349 31.0227 7.74419 25.8818 7.74419 19.5C7.74419 13.1182 12.7349 7.97727 18.9302 7.97727C21.5977 7.97727 24.007 8.95227 25.9 10.5477L31.407 4.875C28.0512 1.86136 23.7488 0 18.9302 0C8.43256 0 0 8.68636 0 19.5C0 30.3136 8.43256 39 18.9302 39C28.3953 39 37 31.9091 37 19.5C37 18.3477 36.8279 17.1068 36.5698 15.9545Z" fill="white"/>
</mask>
<g mask="url(#mask1_1456_2026)">
<path fill-rule="evenodd" clip-rule="evenodd" d="M-1.7207 7.97717L12.9072 19.4999L18.9305 14.0931L39.5816 10.6363V-1.77283H-1.7207V7.97717Z" fill="#EA4335"/>
</g>
<mask id="mask2_1456_2026" style="mask-type:alpha" maskUnits="userSpaceOnUse" x="0" y="0" width="37" height="39">
<path d="M36.5698 15.9545H18.9302V23.4886H29.0837C28.1372 28.275 24.1791 31.0227 18.9302 31.0227C12.7349 31.0227 7.74419 25.8818 7.74419 19.5C7.74419 13.1182 12.7349 7.97727 18.9302 7.97727C21.5977 7.97727 24.007 8.95227 25.9 10.5477L31.407 4.875C28.0512 1.86136 23.7488 0 18.9302 0C8.43256 0 0 8.68636 0 19.5C0 30.3136 8.43256 39 18.9302 39C28.3953 39 37 31.9091 37 19.5C37 18.3477 36.8279 17.1068 36.5698 15.9545Z" fill="white"/>
</mask>
<g mask="url(#mask2_1456_2026)">
<path fill-rule="evenodd" clip-rule="evenodd" d="M-1.7207 31.0226L24.0933 10.6363L30.8909 11.5226L39.5816 -1.77283V40.7726H-1.7207V31.0226Z" fill="#34A853"/>
</g>
<mask id="mask3_1456_2026" style="mask-type:alpha" maskUnits="userSpaceOnUse" x="0" y="0" width="37" height="39">
<path d="M36.5698 15.9545H18.9302V23.4886H29.0837C28.1372 28.275 24.1791 31.0227 18.9302 31.0227C12.7349 31.0227 7.74419 25.8818 7.74419 19.5C7.74419 13.1182 12.7349 7.97727 18.9302 7.97727C21.5977 7.97727 24.007 8.95227 25.9 10.5477L31.407 4.875C28.0512 1.86136 23.7488 0 18.9302 0C8.43256 0 0 8.68636 0 19.5C0 30.3136 8.43256 39 18.9302 39C28.3953 39 37 31.9091 37 19.5C37 18.3477 36.8279 17.1068 36.5698 15.9545Z" fill="white"/>
</mask>
<g mask="url(#mask3_1456_2026)">
<path fill-rule="evenodd" clip-rule="evenodd" d="M39.5811 40.7726L12.9067 19.4999L9.46484 16.8408L39.5811 7.97717V40.7726Z" fill="#4285F4"/>
</g>
</svg>
