<svg width="23" height="23" viewBox="0 0 23 23" fill="none" xmlns="http://www.w3.org/2000/svg">
<path d="M12.4258 3.17666L17.8341 5.57833C19.3925 6.26583 19.3925 7.4025 17.8341 8.09L12.4258 10.4917C11.8116 10.7667 10.8033 10.7667 10.1891 10.4917L4.78081 8.09C3.22248 7.4025 3.22248 6.26583 4.78081 5.57833L10.1891 3.17666C10.8033 2.90166 11.8116 2.90166 12.4258 3.17666Z" stroke="white" stroke-width="1.5" stroke-linecap="round" stroke-linejoin="round"/>
<path d="M3.25 10.5833C3.25 11.3533 3.8275 12.2425 4.53333 12.5542L10.7575 15.3225C11.2342 15.5333 11.775 15.5333 12.2425 15.3225L18.4667 12.5542C19.1725 12.2425 19.75 11.3533 19.75 10.5833" stroke="white" stroke-width="1.5" stroke-linecap="round" stroke-linejoin="round"/>
<path d="M3.25 15.1667C3.25 16.0192 3.75417 16.7892 4.53333 17.1375L10.7575 19.9058C11.2342 20.1167 11.775 20.1167 12.2425 19.9058L18.4667 17.1375C19.2458 16.7892 19.75 16.0192 19.75 15.1667" stroke="white" stroke-width="1.5" stroke-linecap="round" stroke-linejoin="round"/>
</svg>
