<svg width="25" height="25" viewBox="0 0 25 25" fill="none" xmlns="http://www.w3.org/2000/svg">
<path d="M18.5082 6.95611L16.1424 3.80169C15.5052 2.95217 14.3154 2.74836 13.4318 3.3374L7.93359 7.00289" stroke="#323232" stroke-width="1.5" stroke-linecap="round" stroke-linejoin="round"/>
<path fill-rule="evenodd" clip-rule="evenodd" d="M18.5079 11.5049H21.0089C21.5614 11.5049 22.0093 11.9528 22.0093 12.5053V15.5065C22.0093 16.0591 21.5614 16.507 21.0089 16.507H18.5079C17.1266 16.507 16.0068 15.3872 16.0068 14.0059V14.0059C16.0068 12.6246 17.1266 11.5049 18.5079 11.5049V11.5049Z" stroke="#323232" stroke-width="1.5" stroke-linecap="round" stroke-linejoin="round"/>
<path d="M21.0085 11.5048V9.50397C21.0085 8.12268 19.8887 7.00293 18.5074 7.00293H5.50202C4.12073 7.00293 3.00098 8.12268 3.00098 9.50397V18.5077C3.00098 19.889 4.12073 21.0088 5.50202 21.0088H18.5074C19.8887 21.0088 21.0085 19.889 21.0085 18.5077V16.5069" stroke="#323232" stroke-width="1.5" stroke-linecap="round" stroke-linejoin="round"/>
</svg>
