<svg width="24" height="25" viewBox="0 0 24 25" fill="none" xmlns="http://www.w3.org/2000/svg">
<g filter="url(#filter0_dd_1421_2037)">
<path fill-rule="evenodd" clip-rule="evenodd" d="M13.8509 21.4263C13.8311 21.4263 13.8123 21.4254 13.7934 21.4244C13.3673 21.399 13.012 21.0898 12.9271 20.6713L11.4774 13.5384C11.402 13.1671 11.1126 12.8777 10.7412 12.8023L3.60837 11.3516C3.18984 11.2677 2.88066 10.9123 2.85521 10.4862C2.82976 10.0592 3.09275 9.66898 3.49808 9.53513L18.5801 4.50812C18.9185 4.39312 19.2917 4.48173 19.5444 4.73529C19.797 4.98791 19.8846 5.36119 19.7725 5.69959L14.7445 20.7816C14.6163 21.169 14.2544 21.4263 13.8509 21.4263" fill="#231F20"/>
<mask id="mask0_1421_2037" style="mask-type:alpha" maskUnits="userSpaceOnUse" x="2" y="4" width="18" height="18">
<path fill-rule="evenodd" clip-rule="evenodd" d="M13.8509 21.4263C13.8311 21.4263 13.8123 21.4254 13.7934 21.4244C13.3673 21.399 13.012 21.0898 12.9271 20.6713L11.4774 13.5384C11.402 13.1671 11.1126 12.8777 10.7412 12.8023L3.60837 11.3516C3.18984 11.2677 2.88066 10.9123 2.85521 10.4862C2.82976 10.0592 3.09275 9.66898 3.49808 9.53513L18.5801 4.50812C18.9185 4.39312 19.2917 4.48173 19.5444 4.73529C19.797 4.98791 19.8846 5.36119 19.7725 5.69959L14.7445 20.7816C14.6163 21.169 14.2544 21.4263 13.8509 21.4263" fill="white"/>
</mask>
<g mask="url(#mask0_1421_2037)">
<rect x="0.967773" y="0.688599" width="22.623" height="22.623" fill="white"/>
</g>
</g>
<defs>
<filter id="filter0_dd_1421_2037" x="-1.03223" y="-0.311401" width="26.623" height="26.6229" filterUnits="userSpaceOnUse" color-interpolation-filters="sRGB">
<feFlood flood-opacity="0" result="BackgroundImageFix"/>
<feColorMatrix in="SourceAlpha" type="matrix" values="0 0 0 0 0 0 0 0 0 0 0 0 0 0 0 0 0 0 127 0" result="hardAlpha"/>
<feOffset dy="1"/>
<feGaussianBlur stdDeviation="0.5"/>
<feColorMatrix type="matrix" values="0 0 0 0 0 0 0 0 0 0 0 0 0 0 0 0 0 0 0.03 0"/>
<feBlend mode="normal" in2="BackgroundImageFix" result="effect1_dropShadow_1421_2037"/>
<feColorMatrix in="SourceAlpha" type="matrix" values="0 0 0 0 0 0 0 0 0 0 0 0 0 0 0 0 0 0 127 0" result="hardAlpha"/>
<feOffset dy="1"/>
<feGaussianBlur stdDeviation="1"/>
<feColorMatrix type="matrix" values="0 0 0 0 0 0 0 0 0 0 0 0 0 0 0 0 0 0 0.03 0"/>
<feBlend mode="normal" in2="effect1_dropShadow_1421_2037" result="effect2_dropShadow_1421_2037"/>
<feBlend mode="normal" in="SourceGraphic" in2="effect2_dropShadow_1421_2037" result="shape"/>
</filter>
</defs>
</svg>
