<svg width="25" height="24" viewBox="0 0 25 24" fill="none" xmlns="http://www.w3.org/2000/svg">
<path d="M14.0297 7.52002L9.96973 10.56" stroke="#10375C" stroke-width="1.5" stroke-linecap="round" stroke-linejoin="round"/>
<path d="M16.9044 4.64216C17.6979 5.4357 17.6979 6.7223 16.9044 7.51584C16.1108 8.30938 14.8242 8.30938 14.0307 7.51584C13.2372 6.72229 13.2372 5.4357 14.0307 4.64216C14.8243 3.84861 16.1108 3.84861 16.9044 4.64216" stroke="#10375C" stroke-width="1.5" stroke-linecap="round" stroke-linejoin="round"/>
<path d="M14.0297 16.4799L9.96973 13.4399" stroke="#10375C" stroke-width="1.5" stroke-linecap="round" stroke-linejoin="round"/>
<path d="M16.9044 16.4842C17.6979 17.2777 17.6979 18.5643 16.9044 19.3579C16.1108 20.1514 14.8242 20.1514 14.0307 19.3579C13.2372 18.5643 13.2372 17.2777 14.0307 16.4842C14.8243 15.6907 16.1108 15.6907 16.9044 16.4842" stroke="#10375C" stroke-width="1.5" stroke-linecap="round" stroke-linejoin="round"/>
<path d="M9.96542 10.5645C10.7582 11.3573 10.7582 12.6426 9.96542 13.4354C9.17266 14.2282 7.88733 14.2282 7.09457 13.4354C6.30181 12.6426 6.30181 11.3573 7.09457 10.5645C7.88734 9.77178 9.17266 9.77178 9.96542 10.5645" stroke="#10375C" stroke-width="1.5" stroke-linecap="round" stroke-linejoin="round"/>
</svg>
