<svg width="414" height="353" viewBox="0 0 414 353" fill="none" xmlns="http://www.w3.org/2000/svg">
<path fill-rule="evenodd" clip-rule="evenodd" d="M207 352.556C362.192 352.556 488 238.264 488 97.2781C488 -41.3513 366.363 -154.171 214.758 -157.905C213.873 -157.929 212.987 -157.948 212.099 -157.963C211.132 -157.988 210.162 -158 209.189 -158C209.185 -158 209.182 -158 209.178 -158C209.064 -158 208.95 -158 208.836 -157.999C208.708 -158 208.58 -158 208.452 -158C208.348 -158 208.245 -158 208.141 -158C208.003 -158 207.865 -158 207.726 -158H207.726L207.489 -158L207.45 -158L207.418 -158L207.381 -158L207.026 -158H207C51.808 -158 -74 -43.7081 -74 97.2781C-74 238.264 51.808 352.556 207 352.556ZM190.144 -154.653C189.484 -154.617 188.825 -154.579 188.166 -154.539C156.359 -146.255 133.083 -119.636 133.083 -88.0789C133.083 -49.8997 167.152 -18.9493 209.178 -18.9493C251.204 -18.9493 285.273 -49.8997 285.273 -88.0789C285.273 -119.128 262.741 -145.396 231.722 -154.124C230.844 -154.195 229.965 -154.261 229.085 -154.324C247.262 -147.288 260.005 -130.909 260.005 -111.826C260.005 -86.3243 237.249 -65.6513 209.178 -65.6513C181.108 -65.6513 158.352 -86.3243 158.352 -111.826C158.352 -131.213 171.504 -147.809 190.144 -154.653ZM192.029 -154.75C196.986 -154.989 201.978 -155.11 207 -155.11C213.794 -155.11 220.531 -154.889 227.202 -154.453C246.052 -147.871 259.43 -131.268 259.43 -111.826C259.43 -86.613 236.932 -66.1741 209.178 -66.1741C181.425 -66.1741 158.927 -86.613 158.927 -111.826C158.927 -131.567 172.72 -148.382 192.029 -154.75ZM132.212 -88.0789C132.212 -118.368 153.412 -144.159 183.068 -153.874C139.419 -143.397 107.24 -107.279 107.24 -64.3321C107.24 -13.1864 152.879 28.2754 209.178 28.2754C265.478 28.2754 311.117 -13.1864 311.117 -64.3321C311.117 -107.155 279.122 -143.19 235.664 -153.783L235.525 -153.796C265.057 -144.022 286.145 -118.288 286.145 -88.0789C286.145 -49.4625 251.686 -18.1578 209.178 -18.1578C166.671 -18.1578 132.212 -49.4625 132.212 -88.0789ZM174.174 -152.464C119.847 -138.837 79.9518 -93.614 79.9518 -39.9257C79.9518 24.5468 137.483 76.812 208.452 76.812C279.421 76.812 336.952 24.5468 336.952 -39.9257C336.952 -91.4167 300.256 -135.122 249.326 -150.634C286.325 -136.411 312.284 -103.126 312.284 -64.3321C312.284 -12.6007 266.122 29.3358 209.178 29.3358C152.234 29.3358 106.072 -12.6007 106.072 -64.3321C106.072 -104.9 134.46 -139.444 174.174 -152.464ZM78.4805 -39.9257C78.4805 -90.1322 112.974 -133.02 161.606 -150.098C97.6854 -132.215 51.2285 -78.1364 51.2285 -14.2C51.2285 64.3195 121.295 127.972 207.726 127.972C294.157 127.972 364.223 64.3195 364.223 -14.2C364.223 -75.5882 321.396 -127.889 261.403 -147.789C306.792 -129.372 338.424 -88.0045 338.424 -39.9257C338.424 25.285 280.233 78.1487 208.452 78.1487C136.671 78.1487 78.4805 25.285 78.4805 -39.9257ZM141.372 -144.794C73.4775 -120.686 25.3848 -60.6716 25.3848 9.54684C25.3848 101.033 107.022 175.197 207.726 175.197C308.43 175.197 390.067 101.033 390.067 9.54684C390.067 -60.6711 341.975 -120.685 274.082 -144.793C328.358 -121.995 366.015 -72.0924 366.015 -14.2C366.015 65.2186 295.147 129.6 207.726 129.6C120.305 129.6 49.4365 65.2186 49.4365 -14.2C49.4365 -72.0929 87.0948 -121.995 141.372 -144.794ZM411.604 29.3358C411.604 -44.644 363.86 -108.493 294.837 -138.17C352.765 -109.917 392.155 -54.3642 392.155 9.54684C392.155 102.08 309.583 177.094 207.726 177.094C105.869 177.094 23.2969 102.08 23.2969 9.54684C23.2969 -54.3602 62.6818 -109.91 120.604 -138.165C51.5875 -108.486 3.84912 -44.6396 3.84912 29.3358C3.84912 131.627 95.1281 214.551 207.727 214.551C320.325 214.551 411.604 131.627 411.604 29.3358ZM110.807 -136.061C33.187 -102.948 -20.5589 -31.2945 -20.5589 51.7634C-20.5589 166.301 81.6479 259.152 207.726 259.152C333.805 259.152 436.012 166.301 436.012 51.7634C436.012 -31.2935 382.267 -102.947 304.648 -136.06C369.68 -104.544 413.938 -42.2994 413.938 29.3358C413.938 132.799 321.614 216.672 207.727 216.672C93.8389 216.672 1.51465 132.799 1.51465 29.3358C1.51465 -42.3003 45.7748 -104.545 110.807 -136.061ZM460.411 74.8505C460.411 -13.3745 405.782 -90.0084 325.578 -128.657C393.267 -92.0878 438.626 -24.9743 438.626 51.7634C438.626 167.613 335.249 261.527 207.726 261.527C80.2043 261.527 -23.1729 167.613 -23.1729 51.7634C-23.1729 -29.2472 27.3773 -99.5319 101.385 -134.478C14.1617 -98.0989 -46.4108 -18.0504 -46.4108 74.8505C-46.4108 201.995 67.0451 305.065 207 305.065C346.955 305.065 460.411 201.995 460.411 74.8505ZM76.267 -125.476C-11.2615 -82.9919 -70.8189 0.82457 -70.8189 97.2781C-70.8189 236.668 53.5649 349.666 207 349.666C360.435 349.666 484.819 236.668 484.819 97.2781C484.819 0.82576 425.263 -82.9898 337.736 -125.475C412.923 -84.8908 463.313 -10.366 463.313 74.8505C463.313 203.45 348.558 307.701 207 307.701C65.4426 307.701 -49.3125 203.45 -49.3125 74.8505C-49.3125 -10.3671 1.07832 -84.8928 76.267 -125.476Z" fill="url(#paint0_linear_1111_1579)" fill-opacity="0.3"/>
<defs>
<linearGradient id="paint0_linear_1111_1579" x1="207" y1="-158" x2="207" y2="352.556" gradientUnits="userSpaceOnUse">
<stop stop-color="white" stop-opacity="0.5"/>
<stop offset="1" stop-color="white" stop-opacity="0"/>
</linearGradient>
</defs>
</svg>
