<svg width="23" height="23" viewBox="0 0 23 23" fill="none" xmlns="http://www.w3.org/2000/svg">
<path d="M11.9858 19.2183H6.19242C3.29575 19.2183 2.33325 17.2933 2.33325 15.3591V7.64081C2.33325 4.74415 3.29575 3.78165 6.19242 3.78165H11.9858C14.8824 3.78165 15.8449 4.74415 15.8449 7.64081V15.3591C15.8449 18.2558 14.8733 19.2183 11.9858 19.2183Z" stroke="white" stroke-width="1.5" stroke-linecap="round" stroke-linejoin="round"/>
<path d="M18.3933 16.175L15.845 14.3875V8.60333L18.3933 6.81583C19.64 5.945 20.6666 6.47667 20.6666 8.0075V14.9925C20.6666 16.5233 19.64 17.055 18.3933 16.175Z" stroke="white" stroke-width="1.5" stroke-linecap="round" stroke-linejoin="round"/>
<path d="M11.0417 10.5833C11.8011 10.5833 12.4167 9.96772 12.4167 9.20833C12.4167 8.44894 11.8011 7.83333 11.0417 7.83333C10.2824 7.83333 9.66675 8.44894 9.66675 9.20833C9.66675 9.96772 10.2824 10.5833 11.0417 10.5833Z" stroke="white" stroke-width="1.5" stroke-linecap="round" stroke-linejoin="round"/>
</svg>
