<svg width="16" height="16" viewBox="0 0 16 16" fill="none" xmlns="http://www.w3.org/2000/svg">
<path d="M8.43997 1.67874L8.41997 1.7254L6.48664 6.21207H4.58664C4.13331 6.21207 3.69997 6.3054 3.30664 6.47207L4.47331 3.6854L4.49997 3.61874L4.54664 3.51207C4.55997 3.47207 4.57331 3.43207 4.59331 3.39874C5.46664 1.37874 6.45331 0.918737 8.43997 1.67874Z" stroke="#363535" stroke-width="1.5" stroke-linecap="round" stroke-linejoin="round"/>
<path d="M12.0331 6.34544C11.7331 6.25211 11.4131 6.21211 11.0931 6.21211H6.48645L8.41978 1.72544L8.43978 1.67877C8.53978 1.71211 8.63312 1.75877 8.73312 1.79877L10.2065 2.41877C11.0265 2.75877 11.5998 3.11211 11.9465 3.53877C12.0131 3.61877 12.0665 3.69211 12.1131 3.77877C12.1731 3.87211 12.2198 3.96544 12.2465 4.06544C12.2731 4.12544 12.2931 4.18544 12.3065 4.23877C12.4865 4.79877 12.3798 5.48544 12.0331 6.34544Z" stroke="#363535" stroke-width="1.5" stroke-linecap="round" stroke-linejoin="round"/>
<path d="M14.3479 9.46555V10.7656C14.3479 10.8989 14.3412 11.0322 14.3345 11.1656C14.2079 13.4922 12.9079 14.6656 10.4412 14.6656H5.24119C5.08119 14.6656 4.92119 14.6522 4.76785 14.6322C2.64785 14.4922 1.51452 13.3589 1.37452 11.2389C1.35452 11.0856 1.34119 10.9256 1.34119 10.7656V9.46555C1.34119 8.12555 2.15452 6.97222 3.31452 6.47222C3.71452 6.30555 4.14119 6.21222 4.59452 6.21222H11.1012C11.4279 6.21222 11.7479 6.25889 12.0412 6.34555C13.3679 6.75222 14.3479 7.99222 14.3479 9.46555Z" stroke="#363535" stroke-width="1.5" stroke-linecap="round" stroke-linejoin="round"/>
<path d="M4.47337 3.68542L3.30671 6.47209C2.14671 6.97209 1.33337 8.12542 1.33337 9.46542V7.51209C1.33337 5.61876 2.68004 4.03876 4.47337 3.68542Z" stroke="#363535" stroke-width="1.5" stroke-linecap="round" stroke-linejoin="round"/>
<path d="M14.3457 7.51179V9.46512C14.3457 7.99846 13.3724 6.75179 12.0391 6.35179C12.3857 5.48512 12.4857 4.80512 12.3191 4.23846C12.3057 4.17846 12.2857 4.11846 12.2591 4.06512C13.4991 4.70512 14.3457 6.01846 14.3457 7.51179Z" stroke="#363535" stroke-width="1.5" stroke-linecap="round" stroke-linejoin="round"/>
</svg>
