<svg width="16" height="16" viewBox="0 0 16 16" fill="none" xmlns="http://www.w3.org/2000/svg">
<path d="M5.5421 5.17266C5.64338 5.27394 5.64338 5.43814 5.5421 5.53942C5.44082 5.64069 5.27662 5.64069 5.17535 5.53942C5.07407 5.43814 5.07407 5.27394 5.17535 5.17266C5.27662 5.07139 5.44082 5.07139 5.5421 5.17266" stroke="#646363" stroke-width="1.5" stroke-linecap="round" stroke-linejoin="round"/>
<path fill-rule="evenodd" clip-rule="evenodd" d="M4.82933 2.01672L6.72867 2.00006C7.08267 1.99672 7.42333 2.13672 7.674 2.38672L13.61 8.32539C14.1307 8.84606 14.1307 9.69072 13.61 10.2114L10.214 13.6094C9.69333 14.1307 8.848 14.1307 8.32733 13.6094L2.38667 7.66673C2.13933 7.41939 2 7.08339 2 6.73272V4.85806C2 4.50739 2.13933 4.17139 2.38667 3.92406L3.90667 2.40339C4.152 2.15806 4.48333 2.01939 4.82933 2.01672Z" stroke="#646363" stroke-width="1.5" stroke-linecap="round" stroke-linejoin="round"/>
</svg>
